<mxfile host="app.diagrams.net" agent="Mozilla/5.0 (Windows NT 10.0; Win64; x64) AppleWebKit/537.36 (KHTML, like Gecko) Chrome/123.0.0.0 Safari/537.36" version="27.1.3">
  <diagram name="Page-1" id="OyzOdGpnKwr4kE93Zs6j">
    <mxGraphModel dx="1229" dy="736" grid="1" gridSize="10" guides="1" tooltips="1" connect="1" arrows="1" fold="1" page="1" pageScale="1" pageWidth="850" pageHeight="1100" math="0" shadow="0">
      <root>
        <mxCell id="0" />
        <mxCell id="1" parent="0" />
        <mxCell id="RVyZRcgrZwe7kYHrd0sQ-3" value="" style="edgeStyle=orthogonalEdgeStyle;rounded=0;orthogonalLoop=1;jettySize=auto;html=1;" edge="1" parent="1" source="RVyZRcgrZwe7kYHrd0sQ-1" target="RVyZRcgrZwe7kYHrd0sQ-2">
          <mxGeometry relative="1" as="geometry" />
        </mxCell>
        <mxCell id="RVyZRcgrZwe7kYHrd0sQ-4" value="LED pins&lt;div&gt;initialized&lt;/div&gt;" style="edgeLabel;html=1;align=center;verticalAlign=middle;resizable=0;points=[];" vertex="1" connectable="0" parent="RVyZRcgrZwe7kYHrd0sQ-3">
          <mxGeometry x="-0.0748" y="-1" relative="1" as="geometry">
            <mxPoint as="offset" />
          </mxGeometry>
        </mxCell>
        <mxCell id="RVyZRcgrZwe7kYHrd0sQ-1" value="Initialize" style="ellipse;whiteSpace=wrap;html=1;aspect=fixed;" vertex="1" parent="1">
          <mxGeometry x="270" y="290" width="100" height="100" as="geometry" />
        </mxCell>
        <mxCell id="RVyZRcgrZwe7kYHrd0sQ-2" value="Update" style="ellipse;whiteSpace=wrap;html=1;aspect=fixed;" vertex="1" parent="1">
          <mxGeometry x="480" y="290" width="100" height="100" as="geometry" />
        </mxCell>
      </root>
    </mxGraphModel>
  </diagram>
</mxfile>
